  Video #0
    ID : 0
    Format : MPEG-4 Visual
    Format profile : Advanced Simple@L5
    Format settings, BVOP : 2
    Format settings, QPel : No
    Format settings, GMC : No warppoints
    Format settings, Matrix : Default (H.263)
    Muxing mode : Packed bitstream
    Codec ID : XVID
    Codec ID/Hint : XviD
    Duration : 5mn 18s
    Bit rate : 733 Kbps
    Width : 624 pixels
    Height : 336 pixels
    Display aspect ratio : 1.857
    Frame rate : 23.976 fps
    Color space : YUV
    Chroma subsampling : 4:2:0
    Bit depth : 8 bits
    Scan type : Progressive
    Compression mode : Lossy
    Bits/(Pixel*Frame) : 0.146
    Stream size : 27.8 MiB (78%)
    Writing library : XviD 1.3.0.dev55

  Audio #1
    ID : 1
    Format : MPEG Audio
    Format version : Version 1
    Format profile : Layer 3
    Mode : Joint stereo
    Mode extension : MS Stereo
    Codec ID : 55
    Codec ID/Hint : MP3
    Duration : 5mn 18s
    Bit rate mode : Constant
    Bit rate : 192 Kbps
    Channel(s) : 2 channels
    Sampling rate : 48.0 KHz
    Compression mode : Lossy
    Stream size : 7.29 MiB (21%)
    Alignment : Aligned on interleaves
    Interleave, duration : 42 ms (1.00 video frame)
    Interleave, preload duration : 504 ms
